HIERARCHY
ROOT SpineBase
{
  OFFSET 0.000000 0.000000 0.000000
  CHANNELS 6 Xposition Yposition Zposition Zrotation Xrotation Yrotation
  JOINT SpineMid
  {
    OFFSET -0.000000 32.464347 0.000000
    CHANNELS 3 Zrotation Xrotation Yrotation
    JOINT SpineShoulder
    {
      OFFSET -0.748262 23.558661 -0.674025
      CHANNELS 3 Zrotation Xrotation Yrotation
      JOINT Neck
      {
        OFFSET -0.300881 7.746628 -0.512202
        CHANNELS 3 Zrotation Xrotation Yrotation
        JOINT Head
        {
          OFFSET -0.879455 12.916075 2.777499
          CHANNELS 3 Zrotation Xrotation Yrotation
          End Site
          {
            OFFSET 0 0 0
          }
        }
      }
      JOINT ShoulderLeft
      {
        OFFSET -5.866563 -4.385098 -12.911694
        CHANNELS 3 Zrotation Xrotation Yrotation
        JOINT ElbowLeft
        {
          OFFSET -4.554105 -15.059876 -7.515042
          CHANNELS 3 Zrotation Xrotation Yrotation
          JOINT WristLeft
          {
            OFFSET 5.519383 -18.790588 6.613595
            CHANNELS 3 Zrotation Xrotation Yrotation
            JOINT HandLeft
            {
              OFFSET 0.445988 -8.445793 3.494575
              CHANNELS 3 Zrotation Xrotation Yrotation
              JOINT HandTipLeft
              {
                OFFSET -0.787659 -6.085615 -0.302077
                CHANNELS 3 Zrotation Xrotation Yrotation
                End Site
                {
                  OFFSET 0 0 0
                }
              }
              JOINT ThumbLeft
              {
                OFFSET 5.384505 4.687485 -0.922664
                CHANNELS 3 Zrotation Xrotation Yrotation
                End Site
                {
                  OFFSET 0 0 0
                }
              }
            }
          }
        }
      }
      JOINT ShoulderRight
      {
        OFFSET -3.494835 -5.936862 -12.351722
        CHANNELS 3 Zrotation Xrotation Yrotation
        JOINT ElbowRight
        {
          OFFSET -5.957278 -21.621272 -4.107151
          CHANNELS 3 Zrotation Xrotation Yrotation
          JOINT WristRight
          {
            OFFSET -5.685055 -19.649297 4.959270
            CHANNELS 3 Zrotation Xrotation Yrotation
            JOINT HandRight
            {
              OFFSET 0.088317 -6.931040 4.116907
              CHANNELS 3 Zrotation Xrotation Yrotation
              JOINT HandTipRight
              {
                OFFSET -4.345801 -6.737848 1.795182
                CHANNELS 3 Zrotation Xrotation Yrotation
                End Site
                {
                  OFFSET 0 0 0
                }
              }
              JOINT ThumbRight
              {
                OFFSET 4.568952 -0.349052 -2.395845
                CHANNELS 3 Zrotation Xrotation Yrotation
                End Site
                {
                  OFFSET 0 0 0
                }
              }
            }
          }
        }
      }
    }
  }
  JOINT HipLeft
  {
    OFFSET -7.578386 0.345353 0.440835
    CHANNELS 3 Zrotation Xrotation Yrotation
    JOINT KneeLeft
    {
      OFFSET 6.490633 -40.604978 3.182224
      CHANNELS 3 Zrotation Xrotation Yrotation
      JOINT AnkleLeft
      {
        OFFSET -5.220603 -25.325110 -3.488563
        CHANNELS 3 Zrotation Xrotation Yrotation
        JOINT FootLeft
        {
          OFFSET 8.225747 -0.311031 3.140236
          CHANNELS 3 Zrotation Xrotation Yrotation
          End Site
          {
            OFFSET 0 0 0
          }
        }
      }
    }
  }
  JOINT HipRight
  {
    OFFSET 3.577543 1.582574 -6.780770
    CHANNELS 3 Zrotation Xrotation Yrotation
    JOINT KneeRight
    {
      OFFSET -11.586674 -30.236472 6.090710
      CHANNELS 3 Zrotation Xrotation Yrotation
      JOINT AnkleRight
      {
        OFFSET 4.891670 -33.145354 0.939881
        CHANNELS 3 Zrotation Xrotation Yrotation
        JOINT FootRight
        {
          OFFSET 1.672189 -2.770451 -13.837675
          CHANNELS 3 Zrotation Xrotation Yrotation
          End Site
          {
            OFFSET 0 0 0
          }
        }
      }
    }
  }
}
MOTION
Frames: 5
Frame Time: 0.033333
170.628629 71.995702 284.651851 0.000000 0.000000 32.916329 -0.000000 0.000000 -32.916329 -0.000000 0.000000 0.000000 -0.000000 0.000000 0.000000 0.000000 0.000000 0.000000 -0.000000 0.000000 0.000000 -0.000000 0.000000 0.000000 -0.000000 0.000000 0.000000 -0.000000 0.000000 0.000000 0.000000 0.000000 0.000000 0.000000 0.000000 0.000000 -0.000000 0.000000 0.000000 -0.000000 0.000000 0.000000 -0.000000 0.000000 0.000000 -0.000000 0.000000 0.000000 0.000000 0.000000 0.000000 0.000000 0.000000 0.000000 -0.000000 0.000000 -32.916329 -0.000000 0.000000 0.000000 -0.000000 0.000000 0.000000 0.000000 0.000000 0.000000 -0.000000 0.000000 -32.916329 -0.000000 0.000000 0.000000 -0.000000 0.000000 0.000000 0.000000 0.000000 0.000000
170.655980 72.103459 284.653636 0.016450 -0.052864 32.911729 0.014914 0.053318 -32.911728 -0.000000 0.000000 0.000000 -0.000000 0.000000 0.000000 0.000000 0.000000 0.000000 -0.000000 0.000000 0.000000 -0.000000 0.000000 0.000000 -0.000000 0.000000 0.000000 1.857255 -0.804811 0.025077 0.000000 0.000000 0.000000 0.000000 0.000000 0.000000 -0.000000 0.000000 0.000000 -0.000000 0.000000 0.000000 -0.000000 0.000000 0.000000 2.246934 -0.629436 1.028533 0.000000 0.000000 0.000000 0.000000 0.000000 0.000000 2.583382 -3.921544 -32.797958 -10.811328 5.600773 0.604528 -5.274231 1.156197 -4.287314 0.000000 0.000000 0.000000 -1.085074 0.315369 -32.977878 1.065392 0.378925 0.066166 -2.051709 -12.345969 5.666464 0.000000 0.000000 0.000000
170.671242 72.221730 284.668814 0.016057 -0.115848 33.256667 0.050103 0.105680 -33.256697 -0.000000 0.000000 0.000000 -0.000000 0.000000 0.000000 0.000000 0.000000 0.000000 -0.000000 0.000000 0.000000 -0.000000 0.000000 0.000000 -0.000000 0.000000 0.000000 3.365897 -1.506376 0.072442 0.000000 0.000000 0.000000 0.000000 0.000000 0.000000 -0.000000 0.000000 0.000000 0.559731 -0.559429 0.305917 -1.062924 1.597035 -0.583121 4.682293 -2.083514 2.253108 0.000000 0.000000 0.000000 0.000000 0.000000 0.000000 4.739198 -7.138050 -32.911991 -19.213077 9.574998 1.732625 -13.967785 5.027226 -7.041115 0.000000 0.000000 0.000000 -1.823808 0.520595 -33.346452 2.309110 1.485360 0.212352 -3.470593 -31.704929 14.100874 0.000000 0.000000 0.000000
170.674413 72.350516 284.697386 -0.001410 -0.189046 33.964551 0.106786 0.156004 -33.964699 -0.000000 0.000000 0.000000 -0.000000 0.000000 0.000000 0.000000 0.000000 0.000000 -0.000000 0.000000 0.000000 -0.000000 0.000000 0.000000 -0.187368 -1.036798 -0.133484 4.715940 -1.061331 0.179519 0.000000 0.000000 0.000000 0.000000 0.000000 0.000000 -0.000000 0.000000 0.000000 0.759826 -0.748617 0.413446 -1.389186 2.142601 -0.755103 6.395198 -2.700194 3.061618 0.000000 0.000000 0.000000 0.000000 0.000000 0.000000 6.380270 -9.623121 -33.356780 -25.327709 12.087550 2.863265 -25.337142 10.236331 -6.382277 0.000000 0.000000 0.000000 -2.190874 0.614973 -34.038063 2.763685 1.907977 0.221769 0.053680 -51.494940 26.267052 0.000000 0.000000 0.000000
170.665495 72.489816 284.739352 -0.036160 -0.272538 35.047381 0.186110 0.202355 -35.047796 -0.000000 0.000000 0.000000 0.618575 0.528128 -0.099776 0.000000 0.000000 0.000000 -0.000000 0.000000 0.000000 -0.000000 0.000000 0.000000 -0.245009 -1.180111 -0.165532 5.593092 -1.413716 0.244280 0.000000 0.000000 0.000000 0.000000 0.000000 0.000000 -0.000000 0.000000 0.000000 0.908379 -0.880064 0.491048 -1.582394 2.517774 -0.852029 7.683033 -3.062382 3.624377 0.000000 0.000000 0.000000 0.000000 0.000000 0.000000 7.459212 -11.374520 -34.214158 -29.275977 13.360641 3.689454 -38.708522 14.365212 -0.976926 0.000000 0.000000 0.000000 -2.173053 0.587278 -35.066535 2.738124 2.121228 0.175318 8.828795 -63.572816 40.356392 0.000000 0.000000 0.000000
